<svg id="visual" viewBox="0 0 960 540" width="960" height="540" xmlns="http://www.w3.org/2000/svg" xmlns:xlink="http://www.w3.org/1999/xlink" version="1.1"><rect width="960" height="540" fill="#ffffff"></rect><g><g transform="translate(495 477)"><path d="M63.8 -49.6C79.8 -30.9 87.9 -4.5 81.1 15.7C74.2 35.9 52.5 49.9 27.6 64.7C2.8 79.4 -25.2 95 -39.6 86.4C-53.9 77.9 -54.6 45.2 -59.8 15.6C-65 -14 -74.6 -40.6 -65.4 -57.8C-56.1 -75 -28.1 -82.9 -2.1 -81.2C23.9 -79.6 47.8 -68.4 63.8 -49.6Z" fill="none" stroke="#fffaf6" stroke-width="20"></path></g><g transform="translate(153 537)"><path d="M66.4 -47.2C82.9 -32.2 91 -4.8 85.8 20.3C80.7 45.4 62.2 68.1 40.3 75.6C18.3 83 -7.1 75.2 -25.5 62.6C-44 50 -55.5 32.7 -56.5 16.3C-57.5 0 -48 -15.3 -36.8 -29.1C-25.6 -42.9 -12.8 -55.1 6 -59.9C24.9 -64.7 49.8 -62.2 66.4 -47.2Z" fill="none" stroke="#fffaf6" stroke-width="20"></path></g><g transform="translate(319 275)"><path d="M67.1 -49.6C79 -38.7 75 -11.2 67.3 12.5C59.6 36.2 48.1 56.2 32.3 61.8C16.5 67.4 -3.7 58.6 -25.7 49.5C-47.6 40.4 -71.3 31 -77.7 14.4C-84.1 -2.1 -73.3 -26 -57.4 -37.8C-41.6 -49.7 -20.8 -49.6 3.4 -52.3C27.6 -55.1 55.3 -60.6 67.1 -49.6Z" fill="none" stroke="#fffaf6" stroke-width="20"></path></g><g transform="translate(282 14)"><path d="M54.7 -32.8C72.9 -20.7 91.2 2.1 89.4 24.7C87.7 47.3 66 69.6 41.1 79.2C16.2 88.8 -11.8 85.7 -26.2 72C-40.7 58.3 -41.6 34 -46.9 10.7C-52.2 -12.6 -61.9 -34.9 -54.9 -44.4C-47.8 -53.9 -23.9 -50.7 -2.8 -48.5C18.2 -46.2 36.4 -44.9 54.7 -32.8Z" stroke="#fffaf6" fill="none" stroke-width="20"></path></g><g transform="translate(794 336)"><path d="M53.4 -45.3C65.3 -27.6 68.4 -5.7 64.5 15.9C60.5 37.5 49.5 58.7 31.5 68.7C13.4 78.6 -11.6 77.4 -32.6 67.4C-53.5 57.4 -70.4 38.6 -74.8 17.6C-79.2 -3.5 -71.2 -26.9 -56.6 -45.1C-42 -63.4 -21 -76.5 -0.1 -76.4C20.7 -76.3 41.5 -62.9 53.4 -45.3Z" stroke="#fffaf6" fill="none" stroke-width="20"></path></g><g transform="translate(956 24)"><path d="M53.2 -42.4C64.8 -27.8 67.3 -5.9 61.9 12.7C56.5 31.4 43.3 46.9 27.6 52.8C11.9 58.6 -6.3 54.8 -26.3 47.8C-46.3 40.8 -68.1 30.7 -72.2 15.7C-76.2 0.7 -62.5 -19.1 -47.5 -34.4C-32.5 -49.8 -16.3 -60.7 2.3 -62.5C20.8 -64.2 41.5 -57 53.2 -42.4Z" stroke="#fffaf6" fill="none" stroke-width="20"></path></g><g transform="translate(24 88)"><path d="M72 -53.6C90.3 -34.5 99.9 -4.8 92.5 18.4C85.1 41.6 60.5 58.2 34.4 70.4C8.2 82.7 -19.6 90.6 -44.2 82.4C-68.8 74.1 -90.3 49.8 -93.9 24.3C-97.4 -1.3 -83.2 -28.1 -64.5 -47.3C-45.9 -66.4 -23 -77.9 2 -79.5C26.9 -81 53.7 -72.7 72 -53.6Z" stroke="#fffaf6" fill="none" stroke-width="20"></path></g><g transform="translate(619 45)"><path d="M30.1 -27.1C36.2 -16.5 36.1 -4.1 35.4 11.7C34.7 27.5 33.3 46.8 24.8 50.6C16.3 54.4 0.7 42.6 -12.2 33.4C-25.1 24.1 -35.3 17.2 -41.9 4.8C-48.5 -7.6 -51.5 -25.5 -43.9 -36.5C-36.3 -47.5 -18.1 -51.5 -3 -49.1C12.1 -46.6 24.1 -37.7 30.1 -27.1Z" stroke="#fffaf6" fill="none" stroke-width="20"></path></g><g transform="translate(954 536)"><path d="M66.2 -59.8C75.8 -40.8 66.7 -13.8 56.1 4.9C45.5 23.6 33.4 34 19.4 41.1C5.3 48.2 -10.8 52 -28.3 47.8C-45.9 43.5 -64.9 31.4 -69.8 14.6C-74.7 -2.2 -65.5 -23.5 -51.5 -43.5C-37.5 -63.5 -18.7 -82.1 4.8 -85.9C28.3 -89.7 56.6 -78.8 66.2 -59.8Z" stroke="#fffaf6" fill="none" stroke-width="20"></path></g></g></svg>