<svg id="visual" viewBox="0 0 960 540" width="960" height="540" xmlns="http://www.w3.org/2000/svg" xmlns:xlink="http://www.w3.org/1999/xlink" version="1.1"><rect x="0" y="0" width="960" height="540" fill="#FFFFFF"></rect><defs><linearGradient id="grad1_0" x1="43.8%" y1="0%" x2="100%" y2="100%"><stop offset="14.444444444444446%" stop-color="#ffffff" stop-opacity="1"></stop><stop offset="85.55555555555554%" stop-color="#ffffff" stop-opacity="1"></stop></linearGradient></defs><defs><linearGradient id="grad2_0" x1="0%" y1="0%" x2="56.3%" y2="100%"><stop offset="14.444444444444446%" stop-color="#ffffff" stop-opacity="1"></stop><stop offset="85.55555555555554%" stop-color="#ffffff" stop-opacity="1"></stop></linearGradient></defs><g transform="translate(960, 0)"><path d="M0 486C-38.3 421.8 -76.5 357.7 -142.7 344.6C-208.9 331.5 -303 369.6 -343.7 343.7C-384.3 317.7 -371.4 227.9 -386.2 160C-401 92 -443.5 46 -486 0L0 0Z" fill="#F4F9FF"></path></g><g transform="translate(0, 540)"><path d="M0 -486C47.3 -431.6 94.6 -377.2 145.4 -351.1C196.2 -325 250.5 -327.2 306.2 -306.2C361.8 -285.2 418.8 -240.9 449 -186C479.2 -131.1 482.6 -65.5 486 0L0 0Z" fill="#F4F9FF"></path></g></svg>