<?xml version="1.0" encoding="utf-8"?>
<!-- Generator: Adobe Illustrator 26.3.1, SVG Export Plug-In . SVG Version: 6.00 Build 0)  -->
<svg version="1.1" id="visual" xmlns="http://www.w3.org/2000/svg" xmlns:xlink="http://www.w3.org/1999/xlink" x="0px" y="0px"
	 viewBox="0 0 900 600" style="enable-background:new 0 0 900 600;" xml:space="preserve">
<style type="text/css">
	.st0{fill:#F4F9FF;}
</style>
<g transform="translate(434.66288073476255 295.47260455355854)">
	
		<image style="overflow:visible;enable-background:new    ;" width="922" height="637" xlink:href="E456DCF0.png"  transform="matrix(0.9995 0 0 0.9995 -451.4292 -311.3807)">
	</image>
</g>
<g transform="translate(434.66288073476255 295.47260455355854)">
	<path class="st0" d="M-259.1-272.3C-340.7-256.8-402-168.9-413.4-77.2c-11.4,91.6,27,187,87,256.4c60,69.6,141.4,113.3,214.7,108.4
		c73.3-5,138.6-58.4,229.6-75.8c91-17.3,207.9,1.5,266.7-38.8c58.9-40.4,59.9-139.6,29.3-221.4c-30.5-81.8-92.5-146-162.3-164.1
		s-147.2,10.2-237-4.1C-75.4-230.8-177.4-287.8-259.1-272.3"/>
</g>
</svg>
