<svg id="visual" viewBox="0 0 960 540" width="960" height="540" xmlns="http://www.w3.org/2000/svg" xmlns:xlink="http://www.w3.org/1999/xlink" version="1.1"><rect x="0" y="0" width="960" height="540" fill="#ffffff"></rect><defs><linearGradient id="grad1_0" x1="43.8%" y1="0%" x2="100%" y2="100%"><stop offset="14.444444444444446%" stop-color="#ffffff" stop-opacity="1"></stop><stop offset="85.55555555555554%" stop-color="#ffffff" stop-opacity="1"></stop></linearGradient></defs><defs><linearGradient id="grad2_0" x1="0%" y1="0%" x2="56.3%" y2="100%"><stop offset="14.444444444444446%" stop-color="#ffffff" stop-opacity="1"></stop><stop offset="85.55555555555554%" stop-color="#ffffff" stop-opacity="1"></stop></linearGradient></defs><g transform="translate(960, 0)"><path d="M0 454C-41.2 454.8 -82.5 455.6 -118.3 441.4C-154.1 427.3 -184.4 398.3 -219 379.3C-253.6 360.4 -292.4 351.5 -332.3 332.3C-372.3 313.2 -413.2 283.7 -420.9 243C-428.5 202.3 -402.8 150.3 -402.8 107.9C-402.8 65.6 -428.4 32.8 -454 0L0 0Z" fill="#FBAE3C"></path></g><g transform="translate(0, 540)"><path d="M0 -442C39.1 -441.4 78.2 -440.8 116.7 -435.6C155.2 -430.5 193.2 -420.7 235.5 -407.9C277.8 -395.1 324.5 -379.2 343.7 -343.7C362.8 -308.1 354.3 -252.7 369.8 -213.5C385.3 -174.3 424.9 -151.2 441.4 -118.3C458 -85.4 451.5 -42.7 445 0L0 0Z" fill="#FBAE3C"></path></g></svg>